<?xml version="1.0" encoding="utf-8"?>
<!-- Generator: Adobe Illustrator 25.4.1, SVG Export Plug-In . SVG Version: 6.00 Build 0)  -->
<svg version="1.1" id="Layer_1" xmlns="http://www.w3.org/2000/svg" xmlns:xlink="http://www.w3.org/1999/xlink" x="0px" y="0px"
	 viewBox="0 0 640 480" style="enable-background:new 0 0 640 480;" xml:space="preserve">
<style type="text/css">
	.st0{fill:#F69728;}
</style>
<g>
	<path class="st0" d="M372.56,180.28c-12.95-3.42-26.33-2.72-39.44,0.7c-10.14,2.65-19.74,6.5-28.47,12.38
		c1.26-0.06,2.46-0.3,3.64-0.58c12.12-2.77,24.28-3.65,36.41-0.31c15.77,4.34,27.14,13.78,32.6,29.51
		c5.29,15.25,3.23,30.27-2.52,44.86c-7.62,19.34-20.56,34.64-37.11,47.01c-5.55,4.15-11.5,7.67-17.49,11.21
		c4.59,0.74,8.93,0.01,13.24-0.76c25.55-4.57,46.46-17.27,62.82-37.17c12.49-15.18,19.95-32.57,19.66-52.64
		C415.53,207.87,399.45,187.37,372.56,180.28z"/>
	<path class="st0" d="M264.44,267.12c-10.44-19.51-15.17-40.11-10.41-62.21c5.24-24.33,25.27-39.77,50.07-38.92
		c9.5,0.33,18.25,3.37,26.97,6.43c-13.69-10.89-33.44-17.38-51.05-16.28c-20.94,1.31-36.7,11.09-46.72,29.71
		c-7.46,13.86-8.75,28.78-6.67,44.01c3.14,22.92,13.45,42.44,29.52,58.92c15.37,15.76,33.59,26.24,55.72,29.08
		c2.69,0.34,5.43,0.22,8.15,0.32c-3.94-2.39-7.91-4.01-11.65-6.05C289.13,301.62,274.71,286.32,264.44,267.12z"/>
</g>
</svg>
