<?xml version="1.0" encoding="utf-8"?>
<!-- Generator: Adobe Illustrator 25.4.1, SVG Export Plug-In . SVG Version: 6.00 Build 0)  -->
<svg version="1.1" xmlns="http://www.w3.org/2000/svg" xmlns:xlink="http://www.w3.org/1999/xlink" x="0px" y="0px"
	 viewBox="0 0 1366 768" style="enable-background:new 0 0 1366 768;" xml:space="preserve">
<style type="text/css">
	.st0{fill:#F69728;}
	.st1{display:none;}
	.st2{display:inline;}
</style>
<g id="Layer_1">
	<g>
		<path d="M278.98,490.78c1.75-2.2,3.9-3.87,6.45-5.02s5.4-1.72,8.56-1.72c2.96,0,5.49,0.4,7.59,1.19c2.1,0.79,3.89,2.08,5.37,3.86
			c1.46,1.73,2.56,3.97,3.3,6.72s1.11,6.04,1.11,9.87v23.85h-24.19v-6.88h17.78v-17.15c0-2.67-0.29-4.93-0.87-6.79
			c-0.58-1.86-1.38-3.36-2.39-4.51c-1.06-1.17-2.28-2.01-3.67-2.53c-1.38-0.51-2.91-0.77-4.59-0.77c-1.68,0-3.32,0.29-4.93,0.86
			c-1.61,0.57-3.11,1.65-4.52,3.25c-1.16,1.33-2.12,2.95-2.89,4.86c-0.77,1.91-1.4,4.05-1.89,6.44l-4.63,23.22h-6.59l5.56-26.24
			c0.2-0.96,0.41-1.82,0.63-2.6c0.22-0.77,0.48-1.59,0.78-2.46l-6.96-13.12h8.04L278.98,490.78z"/>
		<path d="M319.43,490.12v-7.3h6.48v7.3l-1.89,8.84h-2.7L319.43,490.12z M330.58,490.12v-7.3h6.48v7.3l-1.89,8.84h-2.7
			L330.58,490.12z"/>
		<path d="M362.73,522.91c0.96-0.51,1.83-1.01,2.59-1.49c0.77-0.48,1.53-1.05,2.3-1.7c1.63-1.33,3.14-2.88,4.52-4.65
			c1.38-1.76,2.56-3.97,3.52-6.61c1.01-2.83,1.77-5.97,2.28-9.42c0.51-3.45,0.76-8.08,0.76-13.91h6.41c0,6.13-0.35,11.35-1.06,15.66
			c-0.7,4.31-1.65,7.91-2.83,10.79c-1.19,2.92-2.57,5.36-4.15,7.31c-1.58,1.95-3.22,3.64-4.93,5.07c-3.58,3.06-7.78,5.44-12.59,7.14
			s-10.5,2.89-17.04,3.6v-7.12c2.89-0.26,5.55-0.57,7.98-0.95c2.43-0.37,4.65-0.87,6.65-1.47l-11.48-40.02h6.56L362.73,522.91z"/>
		<path d="M430.04,522.67h6.85v6.88h-44.82v-6.88h31.56V505.2c0-2.2-0.25-4.19-0.74-5.98c-0.49-1.79-1.36-3.29-2.59-4.51
			c-1.26-1.24-2.98-2.18-5.17-2.82s-4.98-0.96-8.39-0.96c-0.96,0-2.92,0.08-5.87,0.23c-2.95,0.15-5.39,0.38-7.32,0.68h-0.37v-6.88
			c1.85-0.28,4.07-0.5,6.65-0.67c2.58-0.16,5.06-0.25,7.43-0.25c7.95,0,13.74,1.61,17.35,4.84c3.62,3.23,5.43,8.59,5.43,16.1V522.67
			z"/>
		<path d="M477.49,508.11h-6.41V495.2c0-1.38-0.35-2.44-1.04-3.17c-0.69-0.74-1.78-1.1-3.26-1.1c-0.42,0-1.01,0.03-1.76,0.09
			c-0.75,0.06-1.49,0.15-2.2,0.26v-6.88c0.64-0.09,1.5-0.18,2.57-0.25c1.07-0.07,1.99-0.11,2.76-0.11c3.01,0,5.32,0.93,6.93,2.79
			c1.6,1.86,2.41,4.43,2.41,7.7V508.11z"/>
		<path d="M496.23,485.13l15.19,20.56c3.85-1.59,6.56-3.58,8.13-5.98c1.57-2.4,2.35-5.63,2.35-9.7v-4.88h6.41v4.88
			c0,5.03-1.14,9.2-3.41,12.5c-2.27,3.31-5.66,5.88-10.15,7.7l14.3,19.33h-8.33l-18.3-24.76c-2.42,1.43-4.28,3.29-5.59,5.59
			c-1.31,2.3-1.96,5.34-1.96,9.1v10.07h-6.41v-10.07c0-4.23,0.85-7.93,2.56-11.08c1.7-3.16,4.36-5.92,7.96-8.28l-11.08-14.98H496.23
			z"/>
		<path d="M549.31,529.54h-6.41V495.2c0-1.38-0.35-2.44-1.04-3.17c-0.69-0.74-1.78-1.1-3.26-1.1c-0.42,0-1.01,0.03-1.76,0.09
			c-0.75,0.06-1.49,0.15-2.2,0.26v-6.88c0.64-0.09,1.5-0.18,2.57-0.25c1.07-0.07,1.99-0.11,2.76-0.11c3.01,0,5.32,0.93,6.93,2.79
			c1.6,1.86,2.41,4.43,2.41,7.7V529.54z"/>
		<path d="M593.13,505.23c0-2.48-0.28-4.64-0.85-6.49c-0.57-1.85-1.51-3.34-2.81-4.49c-1.33-1.15-3.08-1.99-5.24-2.53
			c-2.16-0.54-4.87-0.81-8.13-0.81c-1.95,0-3.79,0.08-5.52,0.23c-1.73,0.15-3.59,0.31-5.59,0.47v7.44c0,1.71,0.57,2.96,1.7,3.75
			s2.72,1.19,4.74,1.19c0.69,0,1.58-0.05,2.67-0.14c1.09-0.09,1.85-0.22,2.3-0.39h0.37v6.88c-0.91,0.19-1.9,0.32-2.96,0.4
			c-1.06,0.08-2.05,0.12-2.96,0.12c-4.1,0-7.16-0.97-9.19-2.91c-2.02-1.94-3.05-4.86-3.07-8.77v-14.14c1.93-0.26,4.56-0.49,7.91-0.7
			c3.35-0.21,6.6-0.32,9.76-0.32c4.67,0,8.49,0.43,11.48,1.28c2.99,0.85,5.33,2.12,7.04,3.81c1.78,1.73,3.02,3.91,3.72,6.52
			c0.7,2.62,1.06,5.74,1.06,9.37v3.37c0,3.58-0.43,6.76-1.28,9.54s-2.19,5.07-4.02,6.88c-1.9,1.87-4.3,3.27-7.2,4.21
			c-2.9,0.94-6.5,1.4-10.8,1.4c-2.57,0-5.61-0.11-9.13-0.33c-3.52-0.22-6.12-0.45-7.8-0.68v-6.95h0.37
			c1.93,0.19,4.36,0.42,7.32,0.68c2.95,0.27,5.98,0.4,9.09,0.4c6.03,0,10.37-1.29,13.04-3.86s4-6.41,4-11.51V505.23z"/>
		<path d="M641.96,529.54h-6.41v-24.31c0-2.53-0.28-4.7-0.83-6.52s-1.5-3.31-2.83-4.46c-1.33-1.15-3.08-1.99-5.24-2.53
			c-2.16-0.54-4.87-0.81-8.13-0.81c-2.25,0-4.4,0.09-6.45,0.28c-2.05,0.19-4.2,0.47-6.45,0.84h-0.37v-6.98
			c2-0.3,3.96-0.55,5.87-0.74c1.91-0.19,4.43-0.28,7.54-0.28c4.79,0,8.65,0.43,11.58,1.28s5.25,2.12,6.98,3.81
			c1.75,1.71,2.98,3.88,3.69,6.52c0.7,2.64,1.06,5.76,1.06,9.37V529.54z"/>
		<path d="M711.97,492.01h-5v37.53h-6.41v-37.53h-28.78v-6.88h40.19V492.01z"/>
		<path d="M732.01,529.54h-6.41V495.2c0-1.38-0.35-2.44-1.04-3.17c-0.69-0.74-1.78-1.1-3.26-1.1c-0.42,0-1.01,0.03-1.76,0.09
			s-1.49,0.15-2.2,0.26v-6.88c0.64-0.09,1.5-0.18,2.58-0.25c1.07-0.07,1.99-0.11,2.76-0.11c3.01,0,5.32,0.93,6.93,2.79
			c1.6,1.86,2.41,4.43,2.41,7.7V529.54z"/>
		<path d="M752.79,508.11h-6.41V495.2c0-1.38-0.35-2.44-1.04-3.17c-0.69-0.74-1.78-1.1-3.26-1.1c-0.42,0-1.01,0.03-1.76,0.09
			c-0.75,0.06-1.49,0.15-2.2,0.26v-6.88c0.64-0.09,1.5-0.18,2.57-0.25c1.07-0.07,1.99-0.11,2.76-0.11c3.01,0,5.32,0.93,6.93,2.79
			c1.61,1.86,2.41,4.43,2.41,7.7V508.11z"/>
		<path d="M793.05,521.09c0-0.75-0.35-1.46-1.04-2.14c-0.69-0.68-1.85-1.45-3.48-2.31l-10.19-5.37c-6.72-3.55-11.33-7.1-13.84-10.65
			c-2.51-3.54-3.76-7.64-3.76-12.29v-3.16h7.19v3.16c0,4.77,1.12,8.33,3.35,10.66c2.23,2.34,5.65,4.74,10.24,7.19
			c2.67-1.4,4.63-3.12,5.89-5.14s1.99-4.41,2.19-7.17l0.74-8.73h7.33l-1,9.58c-0.32,3.04-1.3,5.78-2.95,8.21
			c-1.64,2.43-3.88,4.49-6.72,6.17l5,2.63c2.64,1.38,4.63,2.84,5.96,4.37c1.33,1.53,2,3.27,2,5.21c0,2.69-0.91,4.74-2.72,6.14
			c-1.82,1.4-4.03,2.1-6.65,2.1h-28.56v-6.67h28.23c0.99,0,1.7-0.15,2.13-0.46C792.83,522.12,793.05,521.67,793.05,521.09z"/>
		<path d="M848.8,544h-6.41v-44.65c0-3.2-0.58-5.41-1.74-6.61s-3.26-1.81-6.3-1.81c-1.04,0-2.17,0.11-3.41,0.33
			c-1.23,0.22-2.15,0.42-2.74,0.58h-0.37v-6.88c0.86-0.28,2.13-0.5,3.8-0.67c1.67-0.16,3.18-0.25,4.54-0.25
			c4.25,0,7.41,1.18,9.5,3.54s3.13,5.94,3.13,10.73V544z"/>
		<path d="M869.58,529.54h-6.41V495.2c0-1.38-0.35-2.44-1.04-3.17c-0.69-0.74-1.78-1.1-3.26-1.1c-0.42,0-1.01,0.03-1.76,0.09
			c-0.75,0.06-1.49,0.15-2.2,0.26v-6.88c0.64-0.09,1.5-0.18,2.57-0.25c1.07-0.07,1.99-0.11,2.76-0.11c3.01,0,5.32,0.93,6.93,2.79
			c1.6,1.86,2.41,4.43,2.41,7.7V529.54z"/>
		<path d="M915.88,492.01h-5v37.53h-6.41v-37.53h-28.78v-6.88h40.19V492.01z"/>
		<path d="M958.33,529.54h-6.41v-24.31c0-2.53-0.28-4.7-0.83-6.52s-1.5-3.31-2.83-4.46c-1.33-1.15-3.08-1.99-5.24-2.53
			c-2.16-0.54-4.87-0.81-8.13-0.81c-2.25,0-4.4,0.09-6.45,0.28c-2.05,0.19-4.2,0.47-6.45,0.84h-0.37v-6.98
			c2-0.3,3.96-0.55,5.87-0.74c1.91-0.19,4.43-0.28,7.54-0.28c4.79,0,8.65,0.43,11.58,1.28c2.93,0.85,5.25,2.12,6.98,3.81
			c1.75,1.71,2.98,3.88,3.69,6.52c0.7,2.64,1.06,5.76,1.06,9.37V529.54z"/>
		<path d="M977.08,485.13l15.19,20.56c3.85-1.59,6.56-3.58,8.13-5.98c1.57-2.4,2.35-5.63,2.35-9.7v-4.88h6.41v4.88
			c0,5.03-1.14,9.2-3.41,12.5c-2.27,3.31-5.66,5.88-10.15,7.7l14.3,19.33h-8.33l-18.3-24.76c-2.42,1.43-4.29,3.29-5.59,5.59
			c-1.31,2.3-1.96,5.34-1.96,9.1v10.07h-6.41v-10.07c0-4.23,0.85-7.93,2.56-11.08c1.7-3.16,4.36-5.92,7.96-8.28l-11.08-14.98H977.08
			z"/>
	</g>
	<path d="M251.58,350.22c0.4-0.64,0.85-1.26,1.2-1.94c23.79-46.38,47.57-92.75,71.3-139.16c0.95-1.85,1.91-2.69,4.12-2.64
		c6.69,0.18,13.39,0.1,20.09,0.03c1.36-0.01,2,0.39,2.48,1.71c16.91,46.91,33.87,93.81,50.81,140.71c0.23,0.63,0.4,1.29,0.64,2.08
		c-7.15,0-14.13,0-21.31,0c-0.78-2.58-1.48-5.25-2.38-7.85c-5.98-17.12-12.02-34.21-17.97-51.34c-0.53-1.52-1.41-1.67-2.76-1.67
		c-17.71,0.03-35.41,0.05-53.12-0.02c-1.57-0.01-2.26,0.53-2.92,1.9c-9.08,19.01-18.24,37.97-27.3,56.98
		c-0.79,1.67-1.69,2.17-3.47,2.14c-6.46-0.11-12.93-0.04-19.4-0.04C251.58,350.84,251.58,350.53,251.58,350.22z M355.94,276.03
		c-6.5-18.41-12.9-36.55-19.47-55.16c-9.42,18.62-18.59,36.75-27.9,55.16C324.5,276.03,340.01,276.03,355.94,276.03z"/>
	<path d="M1003.22,330.42c1.42-39.75,2.83-79.51,4.26-119.53c2.83,0,5.87,0,8.91,0c2.97,0,5.95,0,8.67,0
		c-2.06,46.82-4.12,93.45-6.18,140.32c-0.31,0.02-0.96,0.09-1.6,0.09c-6.88,0.01-13.75-0.04-20.63,0.04
		c-1.45,0.02-2.24-0.46-3.03-1.66c-25.54-38.54-51.13-77.06-76.71-115.57c-0.2-0.3-0.43-0.58-0.64-0.87
		c-0.23,0.02-0.46,0.04-0.69,0.05c-1.47,39.25-2.94,78.5-4.42,118.01c-2.82,0-5.86,0-8.89,0c-2.97,0-5.95,0-9.25,0
		c3.5-46.77,5.39-93.4,6.08-140.21c0.6-0.08,1.09-0.2,1.58-0.2c7.25-0.01,14.5-0.05,21.75,0.05c0.78,0.01,1.84,0.58,2.27,1.23
		c25.54,38.72,51.02,77.48,76.51,116.23c0.47,0.72,0.98,1.41,1.47,2.12C1002.85,330.49,1003.03,330.46,1003.22,330.42z"/>
	<path d="M534.17,351.15c4.06-48.21,5.77-96.23,6.28-144.44c0.76-0.06,1.35-0.14,1.94-0.14c21.32,0,42.63-0.07,63.95,0.05
		c9.98,0.06,19.77,1.6,29.12,5.26c16.62,6.5,27.47,18.46,32.17,35.55c5.52,20.08,4.75,40.12-2.9,59.55
		c-8.24,20.94-24.07,33.66-45.35,39.98c-9.43,2.8-19.1,4.07-28.91,4.13c-18.16,0.11-36.32,0.05-54.49,0.05
		C535.53,351.15,535.07,351.15,534.17,351.15z M554.57,336.92c0.9,0.06,1.43,0.13,1.97,0.13c9.93,0,19.86,0.25,29.78-0.09
		c6.81-0.24,13.71-0.73,20.37-2.09c18.12-3.71,31.61-13.63,38.64-31.16c5.75-14.32,6.81-29.28,4.89-44.46
		c-2.88-22.73-19.32-37.8-42.15-38.37c-15.61-0.39-31.24-0.19-46.85-0.24c-0.51,0-1.01,0.15-1.66,0.26
		C557.88,259.57,556.23,298.13,554.57,336.92z"/>
	<path d="M440.16,351.02c-6.57,0-13.31,0-20.48,0c3.61-48.05,5.91-96.1,5.83-144.46c1.03,0,1.78,0,2.53,0c17.32,0,34.64,0,51.95,0
		c8.06,0,15.98,0.92,23.42,4.27c11.86,5.34,17.69,14.84,18.48,27.55c1.48,23.71-14.26,39.71-36.18,43.5
		c-2.95,0.51-5.94,0.75-9.29,1.16c14.44,22.64,28.83,45.2,43.44,68.1c-7.48,0-14.53,0.02-21.58-0.05c-0.52-0.01-1.25-0.57-1.5-1.07
		c-13.25-26.44-29.55-51.11-44.62-76.49c-0.15-0.25-0.26-0.52-0.6-1.21c1.49,0.21,2.66,0.37,3.82,0.55
		c10.23,1.6,20.27,1.15,29.85-3.16c16.34-7.35,19.31-23.79,15.36-35.88c-2.5-7.64-8.59-11.16-16.09-12.43
		c-3.24-0.55-6.58-0.71-9.88-0.75c-9.16-0.1-18.32-0.03-27.48-0.03c-0.83,0-1.66,0-3.04,0
		C442.78,264.21,441.47,307.55,440.16,351.02z"/>
	<g>
		<path class="st0" d="M829.98,218.6c-12.95-3.42-26.33-2.72-39.44,0.7c-10.14,2.65-19.74,6.5-28.47,12.38
			c1.26-0.06,2.46-0.3,3.64-0.58c12.12-2.77,24.28-3.65,36.41-0.31c15.77,4.34,27.14,13.78,32.6,29.51
			c5.29,15.25,3.23,30.27-2.52,44.86c-7.62,19.34-20.56,34.64-37.11,47.01c-5.55,4.15-11.5,7.67-17.49,11.21
			c4.59,0.74,8.93,0.01,13.24-0.76c25.55-4.57,46.46-17.27,62.82-37.17c12.49-15.18,19.95-32.57,19.66-52.64
			C872.94,246.18,856.86,225.69,829.98,218.6z"/>
		<path class="st0" d="M721.85,305.44c-10.44-19.51-15.17-40.11-10.41-62.21c5.24-24.33,25.27-39.77,50.07-38.92
			c9.5,0.33,18.25,3.37,26.97,6.43c-13.69-10.89-33.44-17.38-51.05-16.28c-20.94,1.31-36.7,11.09-46.72,29.71
			c-7.46,13.86-8.75,28.78-6.67,44.01c3.14,22.92,13.45,42.44,29.52,58.92c15.37,15.76,33.59,26.24,55.72,29.08
			c2.69,0.34,5.43,0.22,8.15,0.32c-3.94-2.39-7.91-4.01-11.65-6.05C746.55,339.94,732.12,324.64,721.85,305.44z"/>
	</g>
	<g class="st1">
		<path class="st2" d="M254.56,435.83v-47.3h10.83l12.87,33.49c1.19,3.12,2.05,5.45,2.6,7c0.62-1.72,1.58-4.25,2.89-7.58
			l13.02-32.91h9.68v47.3h-6.94v-39.59l-15.8,39.59h-6.49l-15.73-40.27v40.27H254.56z"/>
		<path class="st2" d="M344.18,424.8l6.9,0.74c-1.09,3.51-3.1,6.23-6.05,8.16c-2.94,1.94-6.7,2.9-11.28,2.9
			c-5.76,0-10.33-1.54-13.71-4.63c-3.38-3.09-5.06-7.42-5.06-12.99c0-5.76,1.71-10.24,5.12-13.42c3.41-3.18,7.84-4.78,13.28-4.78
			c5.27,0,9.57,1.56,12.91,4.68c3.34,3.12,5.01,7.51,5.01,13.17c0,0.34-0.01,0.86-0.04,1.55h-29.38c0.25,3.76,1.47,6.65,3.67,8.65
			c2.2,2,4.95,3,8.24,3c2.45,0,4.54-0.56,6.27-1.68C341.79,429.04,343.17,427.25,344.18,424.8z M322.26,415.41h22
			c-0.3-2.88-1.14-5.04-2.52-6.49c-2.13-2.24-4.88-3.36-8.27-3.36c-3.07,0-5.64,0.89-7.73,2.68
			C323.64,410.03,322.48,412.42,322.26,415.41z"/>
		<path class="st2" d="M385.02,435.83v-4.32c-2.5,3.4-6.17,5.1-11.02,5.1c-3.14,0-6.03-0.75-8.66-2.26s-4.67-3.61-6.12-6.31
			c-1.45-2.7-2.17-5.8-2.17-9.31c0-3.42,0.65-6.52,1.97-9.31c1.31-2.79,3.28-4.92,5.9-6.41c2.62-1.48,5.55-2.23,8.79-2.23
			c2.37,0,4.49,0.44,6.34,1.31c1.85,0.87,3.36,2.01,4.53,3.4v-16.97h6.64v47.3H385.02z M363.92,418.73c0,4.39,1.06,7.67,3.19,9.84
			c2.13,2.17,4.64,3.26,7.53,3.26c2.92,0,5.4-1.04,7.44-3.11c2.04-2.08,3.06-5.24,3.06-9.5c0-4.69-1.04-8.13-3.12-10.33
			s-4.64-3.29-7.68-3.29c-2.97,0-5.45,1.05-7.44,3.16C364.91,410.87,363.92,414.19,363.92,418.73z"/>
		<path class="st2" d="M401.75,395.21v-6.68h6.68v6.68H401.75z M401.75,435.83v-34.27h6.68v34.27H401.75z"/>
		<path class="st2" d="M444.3,423.28l6.57,0.74c-0.72,3.94-2.55,7.02-5.51,9.24c-2.96,2.23-6.58,3.34-10.89,3.34
			c-5.39,0-9.73-1.53-13-4.6c-3.28-3.07-4.92-7.46-4.92-13.18c0-3.7,0.7-6.94,2.11-9.71s3.55-4.86,6.44-6.24
			c2.88-1.39,6.02-2.08,9.4-2.08c4.28,0,7.78,0.94,10.5,2.82c2.72,1.88,4.46,4.56,5.23,8.02l-6.49,0.87
			c-0.62-2.3-1.71-4.03-3.28-5.2c-1.57-1.16-3.47-1.74-5.69-1.74c-3.36,0-6.1,1.05-8.2,3.15c-2.1,2.1-3.15,5.42-3.15,9.96
			c0,4.6,1.01,7.95,3.04,10.04c2.03,2.09,4.67,3.13,7.94,3.13c2.62,0,4.81-0.7,6.57-2.1S443.83,426.18,444.3,423.28z"/>
		<path class="st2" d="M482.29,431.61c-2.47,1.83-4.85,3.12-7.14,3.87c-2.29,0.75-4.74,1.13-7.36,1.13c-4.33,0-7.65-0.92-9.98-2.76
			c-2.32-1.84-3.49-4.19-3.49-7.05c0-1.68,0.44-3.21,1.32-4.6c0.88-1.39,2.03-2.5,3.45-3.34c1.42-0.84,3.02-1.47,4.8-1.9
			c1.31-0.3,3.29-0.59,5.94-0.87c5.39-0.56,9.36-1.23,11.91-2c0.02-0.8,0.04-1.3,0.04-1.52c0-2.37-0.63-4.03-1.89-5
			c-1.71-1.31-4.24-1.97-7.6-1.97c-3.14,0-5.46,0.48-6.96,1.44c-1.5,0.96-2.6,2.65-3.32,5.08l-6.53-0.77
			c0.59-2.43,1.57-4.39,2.93-5.89c1.36-1.5,3.33-2.65,5.9-3.45c2.57-0.81,5.55-1.21,8.94-1.21c3.36,0,6.1,0.34,8.2,1.03
			s3.65,1.55,4.64,2.6c0.99,1.04,1.68,2.36,2.08,3.95c0.22,0.99,0.33,2.78,0.33,5.36v7.74c0,5.4,0.14,8.81,0.43,10.25
			s0.85,2.8,1.69,4.11h-6.97C482.93,434.63,482.48,433.22,482.29,431.61z M481.73,418.63c-2.42,0.86-6.06,1.59-10.91,2.19
			c-2.75,0.34-4.69,0.73-5.82,1.16c-1.14,0.43-2.02,1.06-2.63,1.89s-0.93,1.75-0.93,2.76c0,1.55,0.67,2.84,2.02,3.87
			c1.35,1.03,3.32,1.55,5.92,1.55c2.57,0,4.86-0.49,6.86-1.47c2-0.98,3.47-2.32,4.41-4.02c0.72-1.31,1.08-3.25,1.08-5.81V418.63z"/>
		<path class="st2" d="M498.68,435.83v-47.3h6.68v47.3H498.68z"/>
		<path class="st2" d="M537.82,435.83v-47.3h39.32v5.58h-32.12v14.49h30.08v5.55h-30.08v16.1h33.39v5.58H537.82z"/>
		<path class="st2" d="M612.6,448.97v-16.78c-1.04,1.27-2.49,2.32-4.36,3.16c-1.87,0.84-3.85,1.26-5.95,1.26
			c-4.67,0-8.7-1.62-12.07-4.87s-5.06-7.7-5.06-13.36c0-3.44,0.69-6.53,2.06-9.26c1.37-2.73,3.36-4.8,5.97-6.21
			c2.61-1.41,5.47-2.11,8.59-2.11c4.87,0,8.7,1.79,11.5,5.36v-4.58h6.01v47.4H612.6z M592.01,418.6c0,4.41,1.06,7.72,3.19,9.92
			c2.13,2.21,4.67,3.31,7.64,3.31c2.84,0,5.29-1.05,7.34-3.15c2.05-2.1,3.08-5.29,3.08-9.57c0-4.56-1.08-7.99-3.25-10.29
			c-2.16-2.3-4.71-3.45-7.62-3.45c-2.89,0-5.35,1.07-7.36,3.21C593.02,410.72,592.01,414.06,592.01,418.6z"/>
		<path class="st2" d="M655.56,435.83v-5.03c-3.07,3.87-7.23,5.81-12.5,5.81c-2.32,0-4.49-0.39-6.51-1.16
			c-2.02-0.77-3.51-1.75-4.49-2.92c-0.98-1.17-1.66-2.61-2.06-4.31c-0.27-1.14-0.41-2.95-0.41-5.42v-21.23h6.68v19.01
			c0,3.03,0.14,5.08,0.41,6.13c0.42,1.53,1.31,2.73,2.67,3.6c1.36,0.87,3.04,1.31,5.04,1.31c2,0,3.88-0.45,5.64-1.34
			c1.76-0.89,3-2.11,3.73-3.65c0.73-1.54,1.09-3.77,1.09-6.7v-18.36h6.68v34.27H655.56z"/>
		<path class="st2" d="M672.03,395.21v-6.68h6.68v6.68H672.03z M672.03,435.83v-34.27h6.68v34.27H672.03z"/>
		<path class="st2" d="M688.87,448.97v-47.4h6.08v4.45c1.43-1.74,3.05-3.05,4.86-3.92c1.8-0.87,3.99-1.31,6.57-1.31
			c3.36,0,6.33,0.75,8.9,2.26c2.57,1.51,4.51,3.63,5.82,6.37s1.97,5.75,1.97,9.02c0,3.51-0.72,6.66-2.17,9.47
			c-1.45,2.81-3.55,4.96-6.31,6.45c-2.76,1.49-5.66,2.24-8.7,2.24c-2.23,0-4.22-0.41-5.99-1.23c-1.77-0.82-3.22-1.85-4.36-3.1v16.68
			H688.87z M694.91,418.89c0,4.41,1.03,7.67,3.08,9.78c2.05,2.11,4.54,3.16,7.46,3.16c2.97,0,5.51-1.09,7.62-3.28
			s3.17-5.57,3.17-10.15c0-4.37-1.03-7.64-3.1-9.81c-2.07-2.17-4.53-3.26-7.4-3.26c-2.84,0-5.36,1.16-7.55,3.47
			C696.01,411.12,694.91,414.48,694.91,418.89z"/>
		<path class="st2" d="M731.12,435.83v-34.27h5.97v4.81c1.24-1.68,2.88-3.03,4.93-4.05s4.39-1.53,7.01-1.53
			c2.92,0,5.31,0.53,7.18,1.58c1.87,1.05,3.18,2.53,3.95,4.42c3.12-4,7.17-6,12.17-6c3.91,0,6.91,0.94,9.01,2.82
			c2.1,1.88,3.15,4.78,3.15,8.7v23.52h-6.64v-21.59c0-2.32-0.22-4-0.65-5.02s-1.22-1.84-2.36-2.47s-2.47-0.94-4.01-0.94
			c-2.77,0-5.07,0.8-6.9,2.4c-1.83,1.6-2.75,4.17-2.75,7.7v19.91h-6.68v-22.26c0-2.58-0.54-4.52-1.63-5.81
			c-1.09-1.29-2.87-1.94-5.34-1.94c-1.88,0-3.62,0.43-5.21,1.29c-1.59,0.86-2.75,2.12-3.47,3.78c-0.72,1.66-1.08,4.04-1.08,7.16
			v17.78H731.12z"/>
		<path class="st2" d="M821.37,424.8l6.9,0.74c-1.09,3.51-3.1,6.23-6.05,8.16c-2.94,1.94-6.7,2.9-11.28,2.9
			c-5.76,0-10.33-1.54-13.71-4.63c-3.38-3.09-5.06-7.42-5.06-12.99c0-5.76,1.71-10.24,5.12-13.42c3.41-3.18,7.84-4.78,13.28-4.78
			c5.27,0,9.57,1.56,12.91,4.68c3.34,3.12,5.01,7.51,5.01,13.17c0,0.34-0.01,0.86-0.04,1.55h-29.38c0.25,3.76,1.47,6.65,3.67,8.65
			c2.2,2,4.95,3,8.24,3c2.45,0,4.54-0.56,6.27-1.68C818.98,429.04,820.36,427.25,821.37,424.8z M799.45,415.41h22
			c-0.3-2.88-1.14-5.04-2.52-6.49c-2.13-2.24-4.88-3.36-8.27-3.36c-3.07,0-5.64,0.89-7.73,2.68
			C800.83,410.03,799.67,412.42,799.45,415.41z"/>
		<path class="st2" d="M836.65,435.83v-34.27h6.01v4.87c2.89-3.76,7.07-5.65,12.54-5.65c2.37,0,4.55,0.37,6.55,1.11
			c1.99,0.74,3.48,1.72,4.47,2.92c0.99,1.2,1.68,2.63,2.08,4.29c0.25,1.08,0.37,2.96,0.37,5.65v21.07h-6.68v-20.84
			c0-2.37-0.26-4.14-0.78-5.31c-0.52-1.17-1.44-2.11-2.76-2.81c-1.32-0.7-2.87-1.05-4.65-1.05c-2.84,0-5.3,0.79-7.36,2.36
			c-2.07,1.57-3.1,4.55-3.1,8.94v18.71H836.65z"/>
		<path class="st2" d="M893.48,430.64l0.96,5.13c-1.88,0.34-3.56,0.52-5.04,0.52c-2.42,0-4.3-0.33-5.64-1
			c-1.33-0.67-2.28-1.54-2.82-2.63c-0.54-1.09-0.82-3.37-0.82-6.86v-19.72h-4.9v-4.52h4.9v-8.49l6.64-3.48v11.97h6.71v4.52h-6.71
			v20.04c0,1.66,0.12,2.72,0.35,3.19c0.23,0.47,0.62,0.85,1.15,1.13s1.29,0.42,2.28,0.42C891.29,430.86,892.27,430.79,893.48,430.64
			z"/>
		<path class="st2" d="M921.68,435.83v-47.3h7.2v41.72h26.78v5.58H921.68z"/>
		<path class="st2" d="M977.95,430.64l0.96,5.13c-1.88,0.34-3.56,0.52-5.04,0.52c-2.42,0-4.3-0.33-5.64-1
			c-1.33-0.67-2.28-1.54-2.82-2.63c-0.54-1.09-0.82-3.37-0.82-6.86v-19.72h-4.9v-4.52h4.9v-8.49l6.64-3.48v11.97h6.71v4.52h-6.71
			v20.04c0,1.66,0.12,2.72,0.35,3.19c0.23,0.47,0.62,0.85,1.15,1.13s1.29,0.42,2.28,0.42C975.76,430.86,976.74,430.79,977.95,430.64
			z"/>
		<path class="st2" d="M1010.04,435.83v-4.32c-2.5,3.4-6.17,5.1-11.02,5.1c-3.14,0-6.03-0.75-8.66-2.26s-4.67-3.61-6.12-6.31
			c-1.45-2.7-2.17-5.8-2.17-9.31c0-3.42,0.66-6.52,1.97-9.31c1.31-2.79,3.28-4.92,5.9-6.41c2.62-1.48,5.55-2.23,8.79-2.23
			c2.37,0,4.49,0.44,6.34,1.31c1.85,0.87,3.36,2.01,4.53,3.4v-16.97h6.64v47.3H1010.04z M988.93,418.73c0,4.39,1.06,7.67,3.19,9.84
			s4.64,3.26,7.53,3.26c2.92,0,5.4-1.04,7.44-3.11c2.04-2.08,3.06-5.24,3.06-9.5c0-4.69-1.04-8.13-3.12-10.33s-4.64-3.29-7.68-3.29
			c-2.97,0-5.45,1.05-7.44,3.16C989.92,410.87,988.93,414.19,988.93,418.73z"/>
	</g>
</g>
<g id="Layer_2">
	<path d="M243.91,401.07c3.37,0,6.59,0,9.76,0c4.82,13.43,9.61,26.79,14.5,40.42c0.35-0.7,0.59-1.15,0.8-1.6
		c5.78-12.6,11.56-25.19,17.37-37.78c0.2-0.44,0.79-1.04,1.21-1.05c3.05-0.09,6.1-0.05,9.17-0.05c-0.23,16.07-0.46,32.02-0.7,48.05
		c-2.08,0-4.24,0-6.55,0c0.33-13.77,0.66-27.51,0.99-41.26c-0.14-0.02-0.29-0.04-0.43-0.07c-0.25,0.5-0.53,1-0.76,1.51
		c-5.8,12.82-11.6,25.64-17.36,38.48c-0.49,1.08-1.06,1.58-2.39,1.46c-1.82-0.15-4.11,0.46-5.37-0.35
		c-1.18-0.76-1.32-2.92-1.88-4.48c-4.16-11.68-8.31-23.37-12.46-35.05c-0.16-0.44-0.33-0.87-0.5-1.3c-0.16,0.01-0.33,0.02-0.49,0.03
		c-0.99,13.67-1.97,27.34-2.97,41.07c-2.04,0-4.1,0-6.17,0C241.12,433.09,242.51,417.14,243.91,401.07z"/>
	<path d="M789.78,449.09c-2.09,0-4.15,0-6.38,0c0.12-2.17,0.25-4.26,0.36-6.36c0.28-5.36,0.56-10.71,0.84-16.07
		c0.02-0.32,0.03-0.64,0.03-0.96c-0.02-3.2-0.46-6.24-4.22-7.68c-3.47-1.33-8-0.33-10.7,2.25c-3.05,2.92-3.78,6.62-4.01,10.42
		c-0.34,5.62-0.51,11.25-0.75,16.87c-0.02,0.47-0.06,0.94-0.09,1.49c-2.26,0-4.43,0-6.85,0c0.17-2.73,0.37-5.45,0.5-8.18
		c0.25-5.25,0.47-10.5,0.7-15.75c0.01-0.21-0.03-0.42-0.03-0.64c-0.12-6.34-5.32-7.91-10.37-6.62c-5.34,1.36-7.58,5.27-8.05,9.92
		c-0.62,6.18-0.79,12.39-1.13,18.59c-0.05,0.84-0.01,1.68-0.01,2.65c-2.4,0-4.6,0-6.77,0c0.56-11.84,1.12-23.64,1.68-35.52
		c1.99,0,3.99,0,6.1,0c0,1.91,0,3.79,0,6.04c3-4.62,7.32-6.74,12.79-6.94c5.85-0.22,9.93,2.13,12.05,7
		c0.24-0.25,0.48-0.43,0.63-0.65c3.09-4.77,7.91-6.4,13.65-6.32c1.04,0.02,2.09,0.11,3.1,0.31c5.55,1.07,8.64,4.5,8.41,9.74
		C790.88,431.43,790.29,440.18,789.78,449.09z"/>
	<path d="M604.94,442.31c-1.69,1.65-3.02,3.37-4.76,4.59c-5.13,3.59-10.89,4.01-16.69,1.72c-5.89-2.32-8.52-6.98-9.15-12.59
		c-0.55-4.89,0.17-9.66,2.97-13.98c3.98-6.12,10.35-8.47,17.67-9.2c5.91-0.59,11.76,0.02,17.54,0.96
		c-0.67,17.03-1.33,34.03-2.01,51.14c-2.13,0-4.35,0-6.78,0C604.13,457.42,604.53,449.92,604.94,442.31z M605.69,425.28
		c-0.04-0.01-0.09-0.01-0.13-0.02c0-2.07,0.05-4.14-0.04-6.21c-0.02-0.42-0.5-1.11-0.89-1.19c-5.81-1.29-11.49-1.16-16.66,1.95
		c-6.19,3.72-8.93,12.68-6.07,19.38c1.77,4.14,5.53,6.4,10.39,6.25c5.95-0.19,10.71-3.98,12.09-10.06
		C605.13,432.06,605.28,428.64,605.69,425.28z"/>
	<path d="M692.8,465c-2.33,0-4.51,0-6.65,0c0.72-16.75,1.43-33.43,2.15-50.36c2.49-0.41,5.13-1.05,7.8-1.24
		c4.71-0.33,9.46-0.75,14.15-0.47c8.3,0.48,13.71,5.39,14.9,12.93c0.85,5.43,0.21,10.67-2.48,15.66
		c-5.74,10.65-22.7,11.12-28.58,2.05c-0.08-0.12-0.23-0.19-0.6-0.48C693.26,450.48,693.04,457.66,692.8,465z M694.44,426.79
		c-0.15,0-0.3,0-0.45,0c0,1.38-0.03,2.76,0.01,4.13c0.04,1.43,0.09,2.86,0.25,4.29c0.62,5.56,4.16,9.39,9.31,10.09
		c6.18,0.85,11.05-1.6,13.5-6.93c1.72-3.75,2.17-7.66,1.48-11.69c-0.87-5.09-4.37-8.47-9.88-9.32c-4.54-0.7-8.97,0.02-13.29,1.31
		c-0.42,0.12-0.87,0.83-0.89,1.27C694.39,422.23,694.44,424.51,694.44,426.79z"/>
	<path d="M383.31,449.09c-2.02,0-4.07,0-6.29,0c0.13-2.28,0.26-4.48,0.41-7.06c-0.46,0.5-0.72,0.72-0.91,0.98
		c-3.77,5.44-10.02,7.93-17.21,6.69c-6.93-1.2-11.27-5.12-12.65-11.38c-1.71-7.78-0.22-14.98,6.45-20.56
		c5.4-4.52,12.1-5.41,19.1-5.07c1.95,0.09,3.89,0.33,6.11,0.52c0-4.05,0-8.01,0-12.08c2.43,0,4.59,0,6.85,0
		C384.56,417.03,383.94,432.96,383.31,449.09z M378.03,424.21c-0.04-0.01-0.07-0.02-0.11-0.03c0-1.64,0.07-3.29-0.04-4.93
		c-0.03-0.47-0.5-1.23-0.91-1.32c-4.66-1.06-9.37-1.36-13.96,0.23c-7.84,2.71-12.12,11.51-9.61,19.59c2.07,6.69,9.91,9.78,16.58,6.5
		c3.78-1.86,5.88-4.97,6.62-8.7C377.33,431.82,377.57,427.99,378.03,424.21z"/>
	<path d="M1030.18,413.22c0-4.12,0-8.03,0-12.07c2.41,0,4.61,0,6.82,0c-0.62,15.97-1.25,31.91-1.87,47.93c-2,0-4.05,0-6.28,0
		c0.12-2.27,0.24-4.5,0.36-6.72c-0.1-0.03-0.21-0.05-0.31-0.08c-0.4,0.55-0.78,1.11-1.2,1.64c-4.11,5.3-9.95,6.7-16.53,5.76
		c-6.33-0.91-10.68-4.41-12.31-10.1c-2.34-8.19-0.97-15.79,6.05-21.78c5.35-4.57,12.09-5.43,19.09-5.1
		C1025.95,412.78,1027.9,413.02,1030.18,413.22z M1029.85,424.05c-0.11-0.01-0.23-0.02-0.34-0.03c0.08-1.64,0.22-3.29,0.19-4.93
		c-0.01-0.41-0.51-1.08-0.91-1.17c-4.67-1.05-9.37-1.35-13.96,0.23c-7.84,2.7-12.12,11.51-9.62,19.59
		c2.07,6.69,9.91,9.78,16.58,6.51c3.78-1.86,5.89-4.97,6.63-8.69C1029.16,431.77,1029.39,427.89,1029.85,424.05z"/>
	<path d="M564.28,422.34c-0.15,1.72-0.27,3.14-0.4,4.7c-7.94,0-15.78,0-23.82,0c-0.27,5.83-0.54,11.52-0.8,17.2
		c8.93,0,17.69,0,26.69,0c-0.09,1.5-0.19,3.11-0.3,4.81c-11.32,0-22.55,0-33.67,0c0.72-16.01,1.45-31.95,2.17-47.97
		c11.11,0,22.29,0,33.45,0c0,1.6,0,3.11,0,4.7c-8.92,0-17.67,0-26.6,0c-0.24,5.48-0.49,10.92-0.74,16.55
		C548.28,422.34,556.16,422.34,564.28,422.34z"/>
	<path d="M848.52,449.07c-2.5,0-4.68,0-6.89,0c0.67-11.88,1.33-23.68,1.99-35.56c2.08,0,4.2,0,6.49,0c-0.1,2.02-0.2,4.01-0.3,6
		c0.19,0.01,0.36,0.05,0.38,0.01c3.88-5.96,10.08-7.16,16.93-6.83c1.99,0.1,4.03,0.47,5.91,1.08c4.56,1.46,7.1,4.78,7.01,9.42
		c-0.14,6.85-0.55,13.69-0.82,20.53c-0.07,1.74-0.01,3.49-0.01,5.33c-2.46,0-4.62,0-6.98,0c0.13-1.89,0.28-3.76,0.37-5.64
		c0.29-5.89,0.69-11.77,0.81-17.66c0.09-4.38-2.25-7.01-6.48-7.87c-9.24-1.88-16.17,2.48-17.28,11.28
		c-0.71,5.63-0.79,11.33-1.13,16.99C848.48,447.1,848.52,448.04,848.52,449.07z"/>
	<path d="M622.9,413.52c2.26,0,4.42,0,6.74,0c-0.24,3.62-0.51,7.15-0.7,10.68c-0.23,4.08-0.5,8.16-0.56,12.24
		c-0.08,5.38,3.15,8.39,8.99,8.61c8.66,0.32,13.85-3.93,14.55-12.26c0.49-5.82,0.62-11.66,0.91-17.49c0.03-0.57,0.07-1.14,0.11-1.78
		c2.22,0,4.33,0,6.51,0c-0.63,11.85-1.25,23.64-1.88,35.54c-1.91,0-3.96,0-6.1,0c0-2,0-3.97,0-6.07c-0.97,1.1-1.76,2.19-2.76,3.08
		c-3.51,3.15-7.97,3.93-12.63,3.83c-2.17-0.05-4.4-0.3-6.48-0.85c-4.78-1.27-7.7-4.68-7.81-9.25c-0.09-4.03,0.21-8.06,0.38-12.09
		c0.19-4.45,0.42-8.91,0.64-13.36C622.83,414.09,622.87,413.83,622.9,413.52z"/>
	<path d="M340.62,430.5c-9.95,0-19.58,0-29.19,0c-1.33,6.93,2.5,13.07,9.73,14.52c4.85,0.97,9.52,0.14,14.15-1.13
		c0.55-0.15,1.1-0.31,1.66-0.45c0.1-0.03,0.22,0.01,0.54,0.03c-0.31,1.51-0.57,3.01-0.95,4.48c-0.08,0.3-0.59,0.65-0.96,0.73
		c-6.19,1.33-12.44,1.9-18.68,0.39c-6.37-1.55-10.37-5.34-11.81-11.28c-1.1-4.54-0.95-9.08,0.62-13.52
		c2.68-7.56,9.8-11.96,18.76-11.65c1.61,0.06,3.23,0.24,4.8,0.55c6.72,1.32,10.93,5.87,11.31,12.2
		C340.7,427.01,340.62,428.65,340.62,430.5z M334.26,426.72c0.46-5.72-2.78-9.67-8.45-10.25c-1.52-0.16-3.13-0.02-4.64,0.25
		c-5.13,0.92-9.48,5.62-9.31,10C319.29,426.72,326.72,426.72,334.26,426.72z"/>
	<path d="M835.03,430.5c-9.95,0-19.58,0-29.19,0c-1.33,6.93,2.5,13.07,9.73,14.52c4.85,0.97,9.52,0.14,14.15-1.13
		c0.65-0.18,1.31-0.36,2.24-0.61c-0.35,1.7-0.61,3.2-0.99,4.67c-0.08,0.3-0.59,0.65-0.96,0.73c-6.19,1.33-12.44,1.9-18.68,0.39
		c-6.37-1.55-10.37-5.34-11.81-11.28c-1.1-4.54-0.95-9.08,0.62-13.52c2.68-7.56,9.8-11.96,18.76-11.65
		c1.55,0.05,3.11,0.23,4.63,0.52c6.85,1.3,11.1,5.83,11.48,12.23C835.12,427.01,835.03,428.65,835.03,430.5z M806.28,426.69
		c7.47,0,14.94,0,22.39,0c0.48-5.67-2.77-9.64-8.44-10.22c-1.52-0.16-3.13-0.02-4.64,0.25
		C810.47,417.62,806.14,422.31,806.28,426.69z"/>
	<path d="M451.72,419.09c0.2-1.47,0.29-2.68,0.58-3.85c0.09-0.38,0.66-0.83,1.1-0.93c6.55-1.52,13.16-2.23,19.89-1.18
		c5.9,0.92,8.61,3.79,8.41,9.27c-0.32,8.85-0.77,17.69-1.17,26.65c-2.24,0-4.45,0-6.68,0c0.43-6.8,0.86-13.57,1.27-20.07
		c-5.36,1.64-10.73,3.24-16.06,4.94c-1.23,0.39-2.39,1.07-3.48,1.75c-2.17,1.35-2.98,3.33-2.63,5.68c0.34,2.27,2.03,3.52,4.22,4.21
		c3.46,1.08,6.95,0.68,10.41-0.08c0.61-0.13,1.21-0.28,2.14-0.5c-0.41,1.4-0.73,2.61-1.15,3.78c-0.09,0.26-0.55,0.54-0.88,0.59
		c-4.64,0.71-9.3,0.99-13.91-0.18c-3.66-0.93-6.33-2.92-6.99-6.52c-0.7-3.79,0.14-7.21,3.69-9.67c3.4-2.36,7.47-3.23,11.48-4.21
		c2.89-0.71,5.82-1.37,8.62-2.32c3.35-1.14,4.83-3.19,4.46-5.53c-0.38-2.37-2.34-3.8-5.9-4.28c-5.46-0.74-10.67,0.26-15.77,1.97
		C452.92,418.74,452.49,418.86,451.72,419.09z"/>
	<path d="M970.27,444.33c-0.1,1.67-0.2,3.14-0.3,4.72c-10.87,0-21.63,0-32.21,0c0.73-15.92,1.45-31.84,2.19-47.9
		c2.22,0,4.67,0,7.31,0c-0.72,14.32-1.44,28.7-2.17,43.19C953.56,444.33,961.79,444.33,970.27,444.33z"/>
	<path d="M441.86,418.59c-3.07-0.47-6-1.13-8.97-1.35c-8.23-0.6-13.55,3.13-14.83,10.66c-0.49,2.88-0.49,5.98,0.13,8.82
		c1.28,5.89,6.36,9,13.57,8.66c2.86-0.13,5.69-0.73,8.78-1.15c-0.25,1.37-0.5,2.85-0.83,4.32c-0.05,0.21-0.48,0.46-0.76,0.51
		c-5.43,0.92-10.89,1.44-16.3-0.02c-5.73-1.55-9.4-5.09-10.9-10.37c-1.44-5.05-1.24-10.12,0.64-15.06
		c2.73-7.17,9.12-11.03,18.37-10.98c3.04,0.02,6.07,0.62,9.1,0.94c1.2,0.13,1.83,0.62,1.79,1.83
		C441.6,416.51,441.78,417.62,441.86,418.59z"/>
	<path d="M891.87,417.94c-1.73,0-3.27,0-5.12,0c0.07-1.51,0.14-2.91,0.21-4.47c1.72,0,3.37,0,5.16,0c0.17-2.25,0.33-4.35,0.51-6.62
		c1.96-0.39,3.96-0.79,6-1.2c0,2.61,0,5.08,0,7.74c3.39,0,6.82,0,10.31,0c0,1.54,0,2.9,0,4.47c-3.6,0-7.08,0-10.69,0
		c-0.11,2.1-0.22,4-0.3,5.89c-0.21,5.14-0.5,10.28-0.59,15.43c-0.09,5.01,1.63,6.36,7.06,5.8c1.19-0.12,2.36-0.4,3.85-0.66
		c-0.28,1.54-0.5,2.93-0.82,4.3c-0.06,0.25-0.54,0.57-0.84,0.59c-3.32,0.17-6.67,0.63-9.95,0.33c-3.66-0.33-5.72-2.66-5.84-6.09
		c-0.13-3.49,0.02-7,0.18-10.49C891.23,428.03,891.57,423.1,891.87,417.94z"/>
	<path d="M993.22,444.3c-0.28,1.55-0.48,2.89-0.81,4.21c-0.07,0.29-0.59,0.68-0.92,0.7c-3.32,0.17-6.67,0.61-9.95,0.31
		c-3.58-0.33-5.63-2.64-5.77-5.97c-0.14-3.38-0.02-6.78,0.14-10.17c0.21-4.72,0.56-9.43,0.84-14.14c0.02-0.36,0-0.73,0-1.27
		c-1.64,0-3.22,0-5.09,0c0.08-1.57,0.16-2.96,0.24-4.52c1.76,0,3.41,0,5.16,0c0.17-2.26,0.33-4.36,0.5-6.6c2-0.39,3.99-0.78,6-1.18
		c0,2.65,0,5.12,0,7.77c3.44,0,6.87,0,10.48,0c-0.08,1.55-0.16,2.91-0.24,4.42c-3.52,0-6.96,0-10.6,0c-0.14,2.4-0.31,4.65-0.4,6.91
		c-0.2,4.72-0.43,9.44-0.52,14.16c-0.1,5.42,1.99,6.97,7.81,5.97C991.06,444.73,992,444.53,993.22,444.3z"/>
	<path d="M493.13,401.09c2.24,0,4.42,0,6.6,0c-0.74,16.01-1.47,31.95-2.21,47.98c-2.21,0-4.44,0-6.71,0
		C491.58,433.09,492.35,417.16,493.13,401.09z"/>
	<path d="M396.11,413.5c2.24,0,4.41,0,6.59,0c-0.49,11.85-0.98,23.65-1.47,35.55c-2.2,0-4.47,0-6.8,0
		C394.99,437.25,395.55,425.45,396.11,413.5z"/>
	<path d="M670.36,413.5c2.22,0,4.4,0,6.59,0c-0.49,11.84-0.98,23.63-1.47,35.54c-2.19,0-4.46,0-6.8,0
		C669.24,437.26,669.8,425.46,670.36,413.5z"/>
	<path d="M396.11,405.88c0-1.65,0-3.16,0-4.77c2.44,0,4.77,0,7.17,0c0,1.59,0,3.14,0,4.77
		C400.85,405.88,398.56,405.88,396.11,405.88z"/>
	<path d="M670.35,401.07c2.48,0,4.77,0,7.19,0c0,1.58,0,3.13,0,4.78c-2.43,0-4.76,0-7.19,0
		C670.35,404.28,670.35,402.76,670.35,401.07z"/>
</g>
</svg>
